<svg xmlns="http://www.w3.org/2000/svg" width="600" height="400" viewBox="0 0 600 400" fill="none">
  <defs>
    <linearGradient id="bg" x1="0" y1="0" x2="600" y2="400" gradientUnits="userSpaceOnUse">
      <stop stop-color="#F7FAFC"/>
      <stop offset="1" stop-color="#E8EEF5"/>
    </linearGradient>
  </defs>
  <rect width="600" height="400" rx="28" fill="url(#bg)"/>
  <rect x="85" y="60" width="430" height="280" rx="22" fill="#FFFFFF" stroke="#D6E0EA" stroke-width="4"/>
  <rect x="140" y="112" width="320" height="176" rx="18" fill="#F4F8FC" stroke="#C8D4E0" stroke-width="3" stroke-dasharray="10 10"/>
  <path d="M224 248L277.5 194.5C282.2 189.8 289.8 189.8 294.5 194.5L324.5 224.5C329.2 229.2 336.8 229.2 341.5 224.5L375.5 190.5C380.2 185.8 387.8 185.8 392.5 190.5L430 228" stroke="#7A8FA6" stroke-width="12" stroke-linecap="round" stroke-linejoin="round"/>
  <circle cx="246" cy="162" r="20" fill="#9DB3C8"/>
  <rect x="256" y="86" width="88" height="18" rx="9" fill="#D9E4EE"/>
  <rect x="200" y="308" width="200" height="20" rx="10" fill="#D9E4EE"/>
  <rect x="246" y="334" width="108" height="14" rx="7" fill="#E6EDF4"/>
</svg>
